# xmcd
#
# Track frame offsets:
#	150
#	20715
#	46662
#	64382
#	80285
#	95545
#	116997
#	132440
#	151052
#	173280
#	188310
#
# Disc length: 2798 seconds
#
# Revision: 0
# Processed by: cddbd v1.5PL3 Copyright (c) Steve Scherf et al.
# Submitted via: dBpowerAMP V4.0
#
DISCID=810aec0b
DTITLE=Mikel Garikoitz and Denali - 2 ziri-k
DYEAR=1900
DGENRE=Country
TTITLE0=Maite ederra
TTITLE1=Sorginak
TTITLE2=Lea
TTITLE3=Oiaso
TTITLE4=Gezurretan
TTITLE5=Musikarion abenturak
TTITLE6=Baina baina...
TTITLE7=Berroskoberro
TTITLE8=Zure bila
TTITLE9=Nondik nora
TTITLE10=Maitearen galdez
EXTD=
EXTT0=
EXTT1=
EXTT2=
EXTT3=
EXTT4=
EXTT5=
EXTT6=
EXTT7=
EXTT8=
EXTT9=
EXTT10=
PLAYORDER=
